<?xml version="1.0" encoding="UTF-8" standalone="no"?>
<!-- Created with Inkscape (http://www.inkscape.org/) -->

<svg
   width="600"
   height="600"
   viewBox="0 0 600 600"
   version="1.1"
   id="svg1"
   xml:space="preserve"
   inkscape:version="1.4.2 (ebf0e94, 2025-05-08)"
   sodipodi:docname="arcadion6-quicksand2.svg"
   xmlns:inkscape="http://www.inkscape.org/namespaces/inkscape"
   xmlns:sodipodi="http://sodipodi.sourceforge.net/DTD/sodipodi-0.dtd"
   xmlns="http://www.w3.org/2000/svg"
   xmlns:svg="http://www.w3.org/2000/svg"><sodipodi:namedview
     id="namedview1"
     pagecolor="#ffffff"
     bordercolor="#666666"
     borderopacity="1.0"
     inkscape:showpageshadow="2"
     inkscape:pageopacity="0.0"
     inkscape:pagecheckerboard="0"
     inkscape:deskcolor="#d1d1d1"
     inkscape:document-units="px"
     inkscape:zoom="1.210722"
     inkscape:cx="372.91799"
     inkscape:cy="331.62032"
     inkscape:window-width="2194"
     inkscape:window-height="1163"
     inkscape:window-x="1912"
     inkscape:window-y="-8"
     inkscape:window-maximized="1"
     inkscape:current-layer="layer1"
     showgrid="false"><inkscape:grid
       id="grid1"
       units="px"
       originx="0"
       originy="0"
       spacingx="1"
       spacingy="1"
       empcolor="#3f3fff"
       empopacity="0.25098039"
       color="#3f3fff"
       opacity="0.1254902"
       empspacing="5"
       enabled="true"
       visible="false" /></sodipodi:namedview><defs
     id="defs1" /><g
     inkscape:label="Layer 1"
     inkscape:groupmode="layer"
     id="layer1"><path
       id="path1"
       style="fill:#352b21;fill-opacity:1;stroke:#6f5a48;stroke-width:1;stroke-linecap:round;stroke-dasharray:none;stroke-opacity:1"
       d="m 290.94141,285.11914 c -5.10847,0.19153 -10.21771,0.36931 -15.31558,0.7637 -4.34659,0.27637 -8.68275,0.71077 -13.01509,1.15063 -4.73122,0.53911 -9.45804,1.11149 -14.16383,1.84368 -4.27877,0.61381 -8.53514,1.38192 -12.7875,2.15379 -4.70699,0.91557 -9.40707,1.86297 -14.07333,2.97006 -4.184,0.94265 -8.33466,2.0327 -12.48072,3.12766 -4.6205,1.28119 -9.23048,2.59796 -13.79581,4.06543 -4.09766,1.26712 -8.1495,2.68158 -12.19706,4.09867 -4.50623,1.6398 -8.99962,3.31309 -13.43555,5.13601 -3.98484,1.58618 -7.91406,3.31195 -11.83799,5.04157 -4.36319,1.98804 -8.7098,4.01083 -12.98885,6.17524 -3.84855,1.8927 -7.62879,3.92361 -11.40562,5.95428 -4.16507,2.30913 -8.31426,4.64581 -12.38175,7.12396 -3.68937,2.18731 -7.29821,4.50974 -10.90593,6.82782 -3.99714,2.64837 -7.97903,5.31882 -11.865846,8.1277 -3.508122,2.46818 -6.924817,5.06578 -10.337932,7.66248 -3.803657,2.97396 -7.587267,5.97268 -11.268477,9.09784 -3.300474,2.73861 -6.502137,5.5959 -9.699358,8.45348 -3.535824,3.23988 -7.047022,6.50564 -10.448016,9.88759 -3.074239,2.99002 -6.043677,6.08762 -9.006479,9.18721 -3.269984,3.50736 -6.513729,7.03837 -9.63967,10.67543 -2.810757,3.19517 -5.50187,6.49487 -8.195736,9.78837 -3.004434,3.77973 -5.98635,7.57642 -8.834754,11.47585 -2.549211,3.40778 -4.975586,6.90715 -7.402408,10.40241 -2.679567,3.97701 -5.3363,7.96861 -7.8524581,12.05169 -2.3123111,3.65208 -4.4936096,7.38672 -6.6684116,11.12156 -2.3606395,4.1731 -4.6880597,8.3642 -6.8782273,12.62984 -2.000765,3.79412 -3.866087,7.65939 -5.728583,11.52257 -2.011643,4.31599 -3.994344,8.64468 -5.828457,13.0397 -1.711887,3.96922 -3.281908,7.99931 -4.845528,12.02855 -1.678195,4.49119 -3.323901,8.99384 -4.819798,13.54958 -1.383347,4.06033 -2.619737,8.17041 -3.853989,12.27787 -1.321358,4.60902 -2.60848,9.22712 -3.741279,13.88666 -1.051685,4.12325 -1.955775,8.28394 -2.858303,12.44168 -0.961344,4.73252 -1.891191,9.47074 -2.660238,14.23888 -0.730261,4.22648 -1.310344,8.47868 -1.887182,12.72818 -0.58311,4.75888 -1.132583,9.52118 -1.522651,14.30032 -0.394187,4.23757 -0.636252,8.48907 -0.877549,12.73739 -0.208203,4.82355 -0.386541,9.64776 -0.400751,14.47638 -0.06207,4.25571 0.03365,8.5133 0.125514,12.76776 0.169542,4.79235 0.364168,9.58326 0.729159,14.36535 0.276621,4.31313 0.707406,8.61614 1.144079,12.9153 0.539105,4.73122 1.111494,9.45804 1.843678,14.16383 0.613812,4.27877 1.381918,8.53514 2.153796,12.7875 0.915564,4.70699 1.862967,9.40707 2.970056,14.07333 0.942651,4.184 2.032703,8.33466 3.127655,12.48072 1.281194,4.6205 2.597963,9.23048 4.065435,13.79581 1.267116,4.09766 2.681583,8.1495 4.098669,12.19706 1.639797,4.50623 3.313092,8.99962 5.136008,13.43555 1.586177,3.98484 3.311956,7.91406 5.041569,11.83799 1.988041,4.36319 4.010833,8.7098 6.175245,12.98885 1.8926938,3.84855 3.9236065,7.62879 5.9542731,11.40562 2.3091377,4.16507 4.64580993,8.31426 7.1239673,12.38175 2.1873067,3.68937 4.5097332,7.29821 6.8278196,10.90593 2.648369,3.99714 5.318816,7.97903 8.127693,11.86585 2.468183,3.50812 5.065783,6.92481 7.662489,10.33793 2.973951,3.80366 5.972677,7.58726 9.097838,11.26848 2.738608,3.30047 5.595894,6.50213 8.453474,9.69935 3.239881,3.53583 6.505648,7.04703 9.887597,10.44802 2.990015,3.07424 6.087612,6.04368 9.187205,9.00648 3.507361,3.26998 7.038367,6.51373 10.675436,9.63967 3.195163,2.81076 6.494865,5.50187 9.788369,8.19573 3.779731,3.00444 7.576418,5.98635 11.475845,8.83476 3.407778,2.54921 6.907152,4.97558 10.402412,7.40241 3.97701,2.67956 7.96861,5.3363 12.05169,7.85245 3.65208,2.31232 7.38672,4.49361 11.12156,6.66842 4.1731,2.36064 8.3642,4.68806 12.62984,6.87822 3.79412,2.00077 7.65939,3.86609 11.52257,5.72859 4.31599,2.01164 8.64468,3.99434 13.0397,5.82845 3.96922,1.71189 7.99931,3.28191 12.02855,4.84553 4.49119,1.6782 8.99384,3.3239 13.54958,4.8198 4.06033,1.38335 8.17041,2.61974 12.27787,3.85399 4.60902,1.32136 9.22712,2.60848 13.88666,3.74128 4.12325,1.05168 8.28394,1.95577 12.44168,2.8583 4.73252,0.96134 9.47074,1.89119 14.23888,2.66024 4.22648,0.73026 8.47868,1.31034 12.72818,1.88718 4.75888,0.58311 9.52118,1.13258 14.30032,1.52265 4.23757,0.39419 8.48907,0.63625 12.73739,0.87755 4.82355,0.2082 9.64776,0.38654 14.47638,0.40075 4.25571,0.0621 8.5133,-0.0336 12.76776,-0.12551 4.79235,-0.16954 9.58326,-0.36417 14.36535,-0.72916 4.31313,-0.27662 8.61614,-0.70741 12.9153,-1.14408 4.73122,-0.53911 9.45804,-1.11149 14.16383,-1.84368 4.27877,-0.61381 8.53514,-1.38192 12.7875,-2.15379 4.70699,-0.91557 9.40707,-1.86297 14.07333,-2.97006 4.184,-0.94265 8.33466,-2.0327 12.48072,-3.12766 4.6205,-1.28119 9.23048,-2.59796 13.79581,-4.06543 4.09766,-1.26712 8.1495,-2.68158 12.19706,-4.09867 4.50623,-1.6398 8.99962,-3.31309 13.43555,-5.13601 3.98484,-1.58618 7.91406,-3.31195 11.83799,-5.04157 4.36319,-1.98804 8.7098,-4.01083 12.98885,-6.17524 3.84855,-1.8927 7.62879,-3.92361 11.40562,-5.95428 4.16507,-2.30913 8.31426,-4.64581 12.38175,-7.12396 3.68937,-2.18731 7.29821,-4.50974 10.90593,-6.82782 3.99714,-2.64837 7.97903,-5.31882 11.86585,-8.1277 3.50812,-2.46818 6.92481,-5.06578 10.33793,-7.66248 3.80366,-2.97396 7.58726,-5.97268 11.26848,-9.09784 3.30047,-2.73861 6.50213,-5.5959 9.69935,-8.45348 3.53583,-3.23988 7.04703,-6.50564 10.44802,-9.88759 3.07424,-2.99002 6.04368,-6.08762 9.00648,-9.18721 3.26998,-3.50736 6.51373,-7.03837 9.63967,-10.67543 2.81076,-3.19517 5.50187,-6.49487 8.19573,-9.78837 3.00444,-3.77973 5.98635,-7.57642 8.83476,-11.47585 2.54921,-3.40778 4.97558,-6.90715 7.40241,-10.40241 2.67956,-3.97701 5.3363,-7.96861 7.85245,-12.05169 2.31232,-3.65208 4.49361,-7.38672 6.66842,-11.12156 2.36064,-4.1731 4.68806,-8.3642 6.87822,-12.62984 2.00077,-3.79412 3.86609,-7.65939 5.72859,-11.52257 2.01164,-4.31599 3.99434,-8.64468 5.82845,-13.0397 1.71189,-3.96922 3.28191,-7.99931 4.84553,-12.02855 1.6782,-4.49119 3.3239,-8.99384 4.8198,-13.54958 1.38335,-4.06033 2.61974,-8.17041 3.85399,-12.27787 1.32136,-4.60902 2.60848,-9.22712 3.74128,-13.88666 1.05168,-4.12325 1.95577,-8.28394 2.8583,-12.44168 0.96134,-4.73252 1.89119,-9.47074 2.66024,-14.23888 0.73026,-4.22648 1.31034,-8.47868 1.88718,-12.72818 0.58311,-4.75888 1.13258,-9.52118 1.52265,-14.30032 0.39419,-4.23757 0.63625,-8.48907 0.87755,-12.73739 0.2082,-4.82355 0.38654,-9.64776 0.40075,-14.47638 0.0621,-4.25571 -0.0336,-8.5133 -0.12551,-12.76776 -0.16954,-4.79235 -0.36417,-9.58326 -0.72916,-14.36535 -0.27662,-4.31313 -0.70741,-8.61614 -1.14408,-12.9153 -0.53911,-4.73122 -1.11149,-9.45804 -1.84368,-14.16383 -0.61381,-4.27877 -1.38192,-8.53514 -2.15379,-12.7875 -0.91557,-4.70699 -1.86297,-9.40707 -2.97006,-14.07333 -0.94265,-4.184 -2.0327,-8.33466 -3.12766,-12.48072 -1.28119,-4.6205 -2.59796,-9.23048 -4.06543,-13.79581 -1.26712,-4.09766 -2.68158,-8.1495 -4.09867,-12.19706 -1.6398,-4.50623 -3.31309,-8.99962 -5.13601,-13.43555 -1.58618,-3.98484 -3.31195,-7.91406 -5.04157,-11.83799 -1.98804,-4.36319 -4.01083,-8.7098 -6.17524,-12.98885 -1.8927,-3.84855 -3.92361,-7.62879 -5.95428,-11.40562 -2.30913,-4.16507 -4.64581,-8.31426 -7.12396,-12.38175 -2.18731,-3.68937 -4.50974,-7.29821 -6.82782,-10.90593 -2.64837,-3.99714 -5.31882,-7.97903 -8.1277,-11.86585 -2.46818,-3.50812 -5.06578,-6.92481 -7.66248,-10.33793 -2.97396,-3.80366 -5.97268,-7.58726 -9.09784,-11.26848 -2.73861,-3.30047 -5.5959,-6.50213 -8.45348,-9.69935 -3.23988,-3.53583 -6.50564,-7.04703 -9.88759,-10.44802 -2.99002,-3.07424 -6.08762,-6.04368 -9.18721,-9.00648 -3.50736,-3.26998 -7.03837,-6.51373 -10.67543,-9.63967 -3.19517,-2.81076 -6.49487,-5.50187 -9.78837,-8.19573 -3.77973,-3.00444 -7.57642,-5.98635 -11.47585,-8.83476 -3.40778,-2.54921 -6.90715,-4.97558 -10.40241,-7.40241 -3.97701,-2.67956 -7.96861,-5.3363 -12.05169,-7.85245 -3.65208,-2.31232 -7.38672,-4.49361 -11.12156,-6.66842 -4.1731,-2.36064 -8.3642,-4.68806 -12.62984,-6.87822 -3.79412,-2.00077 -7.65939,-3.86609 -11.52257,-5.72859 -4.31599,-2.01164 -8.64468,-3.99434 -13.0397,-5.82845 -3.96922,-1.71189 -7.99931,-3.28191 -12.02855,-4.84553 -4.49119,-1.6782 -8.99384,-3.3239 -13.54958,-4.8198 -4.06033,-1.38335 -8.17041,-2.61974 -12.27787,-3.85399 -4.60902,-1.32136 -9.22712,-2.60848 -13.88666,-3.74128 -4.12325,-1.05168 -8.28394,-1.95577 -12.44168,-2.8583 -4.73252,-0.96134 -9.47074,-1.89119 -14.23888,-2.66024 -4.22648,-0.73026 -8.47868,-1.31034 -12.72818,-1.88718 -4.75888,-0.58311 -9.52118,-1.13258 -14.30032,-1.52265 -4.23757,-0.39419 -8.48907,-0.63625 -12.73739,-0.87755 -4.82355,-0.2082 -9.64776,-0.38654 -14.47638,-0.40075 -3.90567,-0.0793 -7.81194,0.0568 -11.71774,0.0844 z" /></g></svg>
