<?xml version="1.0" encoding="UTF-8" standalone="no"?>
<!-- Created with Inkscape (http://www.inkscape.org/) -->

<svg
   width="600"
   height="600"
   viewBox="0 0 600 600"
   version="1.1"
   id="svg1"
   xml:space="preserve"
   sodipodi:docname="arcadion6-volcano.svg"
   inkscape:version="1.4.2 (ebf0e94, 2025-05-08)"
   xmlns:inkscape="http://www.inkscape.org/namespaces/inkscape"
   xmlns:sodipodi="http://sodipodi.sourceforge.net/DTD/sodipodi-0.dtd"
   xmlns="http://www.w3.org/2000/svg"
   xmlns:svg="http://www.w3.org/2000/svg"><sodipodi:namedview
     id="namedview1"
     pagecolor="#ffffff"
     bordercolor="#666666"
     borderopacity="1.0"
     inkscape:showpageshadow="2"
     inkscape:pageopacity="0.0"
     inkscape:pagecheckerboard="0"
     inkscape:deskcolor="#d1d1d1"
     inkscape:document-units="px"
     inkscape:zoom="1.8514413"
     inkscape:cx="334.60418"
     inkscape:cy="291.3946"
     inkscape:window-width="2194"
     inkscape:window-height="1163"
     inkscape:window-x="1912"
     inkscape:window-y="-8"
     inkscape:window-maximized="1"
     inkscape:current-layer="layer1" /><defs
     id="defs1" /><g
     inkscape:label="Layer 1"
     inkscape:groupmode="layer"
     id="layer1"><path
       id="path3"
       style="fill:#9a0000;fill-opacity:1;stroke:#290000;stroke-width:1;stroke-linecap:butt;stroke-linejoin:miter;stroke-dasharray:none;stroke-opacity:1"
       d="m 397.19924,0 c -7.75979,27.57681 -24.68182,95.264689 -28.91424,124.78798 -3.57295,24.92313 -8.39434,48.83179 -9.23166,75.95621 -0.70014,22.68066 0.98285,44.20745 13.23951,75.02293 9.28925,23.35484 16.78048,33.5909 38.56854,59.07254 18.34352,21.45317 43.1516,40.91435 66.06695,53.51779 22.91534,12.60343 37.17098,20.43188 60.05447,31.56616 C 571.44385,436.6911 600,439.01974 600,439.01974 v 78.95511 c -23.26629,-2.06781 -76.62942,-5.36489 -120.13403,-30.79245 -59.05936,-34.51901 -80.84852,-56.43923 -108.77656,-77.98411 -26.69672,-20.595 -46.97916,-39.87618 -93.81235,-41.78579 -27.52324,-1.12226 -57.54099,3.49719 -94.84763,18.14034 C 147.57787,399.23235 94.424507,431.21989 72.643779,447.08811 49.847824,463.69596 21.618112,490.83138 0,504.16107 V 400.82749 c 42.775302,-27.88033 155.4424,-84.97771 155.4424,-84.97771 0,0 54.85603,-24.05101 73.71101,-37.81032 18.85498,-13.75931 28.32216,-30.66722 35.9007,-55.37873 7.57854,-24.71151 16.7174,-68.70448 20.24188,-102.35519 5.09788,-40.55901 13.59132,-66.151221 19.47804,-98.917889 C 306.33047,12.724167 307.06556,0 307.06556,0 Z"
       sodipodi:nodetypes="cssssssccsssssccczzcscc" /></g></svg>
