<?xml version="1.0" encoding="UTF-8" standalone="no"?>
<!-- Created with Inkscape (http://www.inkscape.org/) -->

<svg
   width="40"
   height="80"
   viewBox="0 0 40 80.000003"
   version="1.1"
   id="svg1"
   xml:space="preserve"
   inkscape:version="1.4.2 (ebf0e94, 2025-05-08)"
   sodipodi:docname="arcadion7-p2.svg"
   xmlns:inkscape="http://www.inkscape.org/namespaces/inkscape"
   xmlns:sodipodi="http://sodipodi.sourceforge.net/DTD/sodipodi-0.dtd"
   xmlns="http://www.w3.org/2000/svg"
   xmlns:svg="http://www.w3.org/2000/svg"><style
     id="style1">.light { fill:var(--xiv-colorArenaLight, #4c4034); }
</style><sodipodi:namedview
     id="namedview1"
     pagecolor="#ffffff"
     bordercolor="#666666"
     borderopacity="1.0"
     inkscape:showpageshadow="2"
     inkscape:pageopacity="0.0"
     inkscape:pagecheckerboard="0"
     inkscape:deskcolor="#d1d1d1"
     inkscape:document-units="px"
     showgrid="true"
     inkscape:zoom="11.313709"
     inkscape:cx="29.521707"
     inkscape:cy="35.753085"
     inkscape:window-width="2194"
     inkscape:window-height="1163"
     inkscape:window-x="1912"
     inkscape:window-y="-8"
     inkscape:window-maximized="1"
     inkscape:current-layer="layer1"><inkscape:grid
       id="grid1"
       units="px"
       originx="0"
       originy="0"
       spacingx="1"
       spacingy="1"
       empcolor="#3f3fff"
       empopacity="0.25098039"
       color="#3f3fff"
       opacity="0.12549"
       empspacing="5"
       enabled="true"
       visible="true" /></sodipodi:namedview><defs
     id="defs1" /><g
     inkscape:label="Layer 1"
     inkscape:groupmode="layer"
     id="layer1"><path
       id="path1"
       style=""
       d="M 0 0 L 0 80 L 40 80 L 40 0 L 0 0 z M 1 1 L 39 1 L 39 79 L 1 79 L 1 1 z "
       class="light" /><path
       id="path37-8"
       style=""
       d="M 12 8 L 12 17 L 13 17 L 13 9 L 22 9 L 22 8 L 12 8 z M 23 8 L 23 9 L 24 9 L 24 8 L 23 8 z M 25 8 L 25 11 L 28 11 L 28 10 L 26 10 L 26 8 L 25 8 z M 27 8 L 27 9 L 28 9 L 28 8 L 27 8 z M 14 10 L 14 13 L 15 13 L 15 11 L 19 11 L 19 10 L 14 10 z M 21 10 L 21 11 L 22 11 L 22 10 L 21 10 z M 23 10 L 23 13 L 25 13 L 25 15 L 26 15 L 26 13 L 28 13 L 28 12 L 24 12 L 24 10 L 23 10 z M 16 12 L 16 13 L 17 13 L 17 12 L 16 12 z M 18 12 L 18 13 L 22 13 L 22 12 L 18 12 z M 14 14 L 14 15 L 15 15 L 15 14 L 14 14 z M 16 14 L 16 16 L 14 16 L 14 17 L 17 17 L 17 14 L 16 14 z M 18 14 L 18 18 L 22 18 L 22 14 L 18 14 z M 23 14 L 23 19 L 18 19 L 18 20 L 24 20 L 24 14 L 23 14 z M 27 14 L 27 18 L 28 18 L 28 14 L 27 14 z M 3 15 L 3 23 L 4 23 L 4 16 L 11 16 L 11 15 L 3 15 z M 19 15 L 21 15 L 21 17 L 19 17 L 19 15 z M 29 15 L 29 16 L 36 16 L 36 23 L 37 23 L 37 15 L 29 15 z M 25 16 L 25 20 L 27 20 L 27 23 L 20 23 L 20 24 L 19 24 L 19 22 L 20 22 L 20 21 L 18 21 L 18 24 L 17 24 L 17 19 L 12 19 L 12 20 L 16 20 L 16 24 L 15 24 L 15 26 L 12 26 L 12 27 L 16 27 L 16 25 L 19 25 L 19 32 L 20 32 L 20 33 L 18 33 L 18 32 L 17 32 L 17 34 L 21 34 L 21 30 L 20 30 L 20 29 L 22 29 L 22 32 L 23 32 L 23 28 L 21 28 L 21 25 L 28 25 L 28 24 L 28 19 L 26 19 L 26 16 L 25 16 z M 15 24 L 15 21 L 12 21 L 12 22 L 14 22 L 14 24 L 15 24 z M 14 24 L 13 24 L 13 23 L 12 23 L 12 24 L 10 24 L 10 25 L 14 25 L 14 24 z M 21 21 L 21 22 L 26 22 L 26 21 L 21 21 z M 4 24 L 4 25 L 5 25 L 5 24 L 4 24 z M 6 24 L 6 26 L 4 26 L 4 27 L 7 27 L 7 24 L 6 24 z M 8 24 L 8 28 L 6 28 L 6 29 L 9 29 L 9 27 L 11 27 L 11 26 L 9 26 L 9 24 L 8 24 z M 29 24 L 29 26 L 28 26 L 28 27 L 30 27 L 30 24 L 29 24 z M 31 24 L 31 29 L 36 29 L 36 28 L 32 28 L 32 24 L 31 24 z M 33 24 L 33 27 L 36 27 L 36 26 L 34 26 L 34 24 L 33 24 z M 35 24 L 35 25 L 36 25 L 36 24 L 35 24 z M 17 26 L 17 31 L 18 31 L 18 26 L 17 26 z M 22 26 L 22 27 L 27 27 L 27 26 L 22 26 z M 4 28 L 4 29 L 5 29 L 5 28 L 4 28 z M 10 28 L 10 29 L 15 29 L 15 34 L 16 34 L 16 28 L 10 28 z M 24 28 L 24 34 L 25 34 L 25 29 L 30 29 L 30 28 L 24 28 z M 4 30 L 4 40 L 4 49 L 5 49 L 5 41 L 14 41 L 14 40 L 13 40 L 13 39 L 5 39 L 5 30 L 4 30 z M 6 30 L 6 31 L 7 31 L 7 30 L 6 30 z M 8 30 L 8 34 L 9 34 L 9 30 L 8 30 z M 10 30 L 10 34 L 14 34 L 14 30 L 10 30 z M 26 30 L 26 34 L 30 34 L 30 30 L 26 30 z M 11 31 L 13 31 L 13 33 L 11 33 L 11 31 z M 27 31 L 29 31 L 29 33 L 27 33 L 27 31 z M 31 31 L 31 34 L 32 34 L 32 32 L 34 32 L 34 31 L 31 31 z M 35 31 L 35 39 L 26 39 L 26 40 L 27 40 L 27 41 L 35 41 L 35 50 L 36 50 L 36 40 L 36 31 L 35 31 z M 6 33 L 6 38 L 9 38 L 9 37 L 7 37 L 7 33 L 6 33 z M 22 33 L 22 35 L 15 35 L 15 41 L 16 41 L 16 36 L 24 36 L 24 38 L 25 38 L 25 35 L 23 35 L 23 33 L 22 33 z M 33 33 L 33 34 L 34 34 L 34 33 L 33 33 z M 8 35 L 8 36 L 9 36 L 9 35 L 8 35 z M 10 35 L 10 36 L 12 36 L 12 38 L 13 38 L 13 35 L 10 35 z M 26 35 L 26 36 L 30 36 L 30 35 L 26 35 z M 31 35 L 31 36 L 32 36 L 32 35 L 31 35 z M 33 35 L 33 37 L 29 37 L 29 38 L 34 38 L 34 35 L 33 35 z M 10 37 L 10 38 L 11 38 L 11 37 L 10 37 z M 17 37 L 17 43 L 23 43 L 23 37 L 17 37 z M 26 37 L 26 38 L 27 38 L 27 37 L 26 37 z M 18 38 L 22 38 L 22 42 L 18 42 L 18 38 z M 19 39 L 19 41 L 21 41 L 21 39 L 19 39 z M 24 39 L 24 44 L 16 44 L 16 42 L 15 42 L 15 45 L 17 45 L 17 47 L 18 47 L 18 45 L 25 45 L 25 39 L 24 39 z M 6 42 L 6 45 L 7 45 L 7 43 L 11 43 L 11 42 L 6 42 z M 13 42 L 13 43 L 14 43 L 14 42 L 13 42 z M 27 42 L 27 45 L 30 45 L 30 44 L 28 44 L 28 42 L 27 42 z M 29 42 L 29 43 L 30 43 L 30 42 L 29 42 z M 31 42 L 31 43 L 33 43 L 33 47 L 34 47 L 34 42 L 31 42 z M 8 44 L 8 45 L 9 45 L 9 44 L 8 44 z M 10 44 L 10 45 L 14 45 L 14 44 L 10 44 z M 31 44 L 31 45 L 32 45 L 32 44 L 31 44 z M 6 46 L 6 47 L 7 47 L 7 46 L 6 46 z M 8 46 L 8 48 L 6 48 L 6 49 L 9 49 L 9 46 L 8 46 z M 10 46 L 10 50 L 14 50 L 14 46 L 10 46 z M 15 46 L 15 51 L 10 51 L 10 52 L 16 52 L 16 46 L 15 46 z M 19 46 L 19 50 L 20 50 L 20 51 L 18 51 L 18 48 L 17 48 L 17 52 L 19 52 L 19 55 L 12 55 L 12 56 L 12 61 L 14 61 L 14 64 L 15 64 L 15 60 L 13 60 L 13 57 L 20 57 L 20 56 L 21 56 L 21 58 L 20 58 L 20 59 L 22 59 L 22 56 L 23 56 L 23 61 L 28 61 L 28 60 L 24 60 L 24 56 L 25 56 L 25 54 L 28 54 L 28 53 L 24 53 L 24 55 L 21 55 L 21 48 L 20 48 L 20 47 L 22 47 L 22 48 L 23 48 L 23 46 L 19 46 z M 25 56 L 25 59 L 28 59 L 28 58 L 26 58 L 26 56 L 25 56 z M 26 56 L 27 56 L 27 57 L 28 57 L 28 56 L 30 56 L 30 55 L 26 55 L 26 56 z M 24 46 L 24 52 L 30 52 L 30 51 L 25 51 L 25 46 L 24 46 z M 26 46 L 26 50 L 30 50 L 30 46 L 26 46 z M 31 46 L 31 50 L 32 50 L 32 46 L 31 46 z M 11 47 L 13 47 L 13 49 L 11 49 L 11 47 z M 27 47 L 29 47 L 29 49 L 27 49 L 27 47 z M 22 49 L 22 54 L 23 54 L 23 49 L 22 49 z M 33 49 L 33 50 L 34 50 L 34 49 L 33 49 z M 4 51 L 4 52 L 8 52 L 8 56 L 9 56 L 9 51 L 4 51 z M 31 51 L 31 53 L 29 53 L 29 54 L 31 54 L 31 56 L 32 56 L 32 52 L 34 52 L 34 51 L 31 51 z M 35 51 L 35 52 L 36 52 L 36 51 L 35 51 z M 4 53 L 4 54 L 6 54 L 6 56 L 7 56 L 7 53 L 4 53 z M 10 53 L 10 56 L 11 56 L 11 54 L 12 54 L 12 53 L 10 53 z M 13 53 L 13 54 L 18 54 L 18 53 L 13 53 z M 33 53 L 33 56 L 34 56 L 34 54 L 36 54 L 36 53 L 33 53 z M 4 55 L 4 56 L 5 56 L 5 55 L 4 55 z M 35 55 L 35 56 L 36 56 L 36 55 L 35 55 z M 3 57 L 3 65 L 11 65 L 11 64 L 4 64 L 4 57 L 3 57 z M 36 57 L 36 64 L 29 64 L 29 65 L 37 65 L 37 57 L 36 57 z M 14 58 L 14 59 L 19 59 L 19 58 L 14 58 z M 16 60 L 16 66 L 17 66 L 17 61 L 22 61 L 22 60 L 16 60 z M 12 62 L 12 66 L 13 66 L 13 62 L 12 62 z M 18 62 L 18 66 L 22 66 L 22 62 L 18 62 z M 19 63 L 21 63 L 21 65 L 19 65 L 19 63 z M 23 63 L 23 66 L 24 66 L 24 64 L 26 64 L 26 63 L 23 63 z M 27 63 L 27 71 L 18 71 L 18 72 L 28 72 L 28 63 L 27 63 z M 14 65 L 14 67 L 12 67 L 12 68 L 16 68 L 16 70 L 17 70 L 17 67 L 15 67 L 15 65 L 14 65 z M 25 65 L 25 66 L 26 66 L 26 65 L 25 65 z M 18 67 L 18 68 L 22 68 L 22 67 L 18 67 z M 23 67 L 23 68 L 24 68 L 24 67 L 23 67 z M 25 67 L 25 69 L 21 69 L 21 70 L 26 70 L 26 67 L 25 67 z M 12 69 L 12 70 L 14 70 L 14 72 L 15 72 L 15 69 L 12 69 z M 18 69 L 18 70 L 19 70 L 19 69 L 18 69 z M 12 71 L 12 72 L 13 72 L 13 71 L 12 71 z M 16 71 L 16 72 L 17 72 L 17 71 L 16 71 z "
       class="light " /><circle
       style=""
       id="circle101"
       cx="2.375"
       cy="2.375"
       r="0.625"
       class="light" /><circle
       style=""
       id="circle192"
       cx="37.625"
       cy="2.375"
       r="0.625"
       class="light" /><circle
       style=""
       id="circle193"
       cx="5.625"
       cy="17.625"
       r="0.625"
       class="light" /><circle
       style=""
       id="circle194"
       cx="34.375"
       cy="17.625"
       r="0.625"
       class="light" /><circle
       style=""
       id="circle195"
       cx="5.625"
       cy="62.374996"
       r="0.625"
       class="light" /><circle
       style=""
       id="circle196"
       cx="34.375"
       cy="62.374996"
       r="0.625"
       class="light" /><circle
       style=""
       id="circle197"
       cx="37.625"
       cy="77.625"
       r="0.625"
       class="light" /><circle
       style=""
       id="circle198"
       cx="2.375"
       cy="77.625"
       r="0.625"
       class="light " /></g></svg>
