<?xml version="1.0" encoding="UTF-8" standalone="no"?>
<!-- Created with Inkscape (http://www.inkscape.org/) -->

<svg
   width="800"
   height="800"
   viewBox="100 0 800 800"
   version="1.1"
   id="svg1"
   inkscape:version="1.4.3 (0d15f75, 2025-12-25)"
   xml:space="preserve"
   sodipodi:docname="arcadion12-p2.svg"
   xmlns:inkscape="http://www.inkscape.org/namespaces/inkscape"
   xmlns:sodipodi="http://sodipodi.sourceforge.net/DTD/sodipodi-0.dtd"
   xmlns:xlink="http://www.w3.org/1999/xlink"
   xmlns="http://www.w3.org/2000/svg"
   xmlns:svg="http://www.w3.org/2000/svg"><style
     id="style62">.arena {   }
.dark { 
    fill:var(--xiv-colorArenaDark, #352b21);
}
.grid { 
    stroke:var(--xiv-colorArenaLight, #4c4034);
}
</style><sodipodi:namedview
     id="namedview1"
     pagecolor="#292929"
     bordercolor="#666666"
     borderopacity="1.0"
     inkscape:showpageshadow="2"
     inkscape:pageopacity="0.0"
     inkscape:pagecheckerboard="0"
     inkscape:deskcolor="#d1d1d1"
     inkscape:document-units="px"
     showgrid="true"
     showguides="true"
     inkscape:zoom="1.4256936"
     inkscape:cx="368.24181"
     inkscape:cy="268.99187"
     inkscape:window-width="2194"
     inkscape:window-height="1163"
     inkscape:window-x="1912"
     inkscape:window-y="-8"
     inkscape:window-maximized="1"
     inkscape:current-layer="layer1"><inkscape:grid
       id="grid1"
       units="px"
       originx="350"
       originy="350"
       spacingx="50"
       spacingy="50"
       empcolor="#000000"
       empopacity="0.1254902"
       color="#3f3fff"
       opacity="0.12549"
       empspacing="2"
       enabled="true"
       visible="true"
       dotted="false" /></sodipodi:namedview><defs
     id="defs1"><inkscape:path-effect
       effect="construct_grid"
       id="path-effect8"
       is_visible="true"
       lpeversion="1"
       nr_x="16"
       nr_y="16" /><inkscape:path-effect
       effect="construct_grid"
       id="path-effect4"
       is_visible="true"
       lpeversion="1"
       nr_x="1"
       nr_y="5" /><inkscape:path-effect
       effect="construct_grid"
       id="path-effect3"
       is_visible="true"
       lpeversion="1"
       nr_x="5"
       nr_y="5" /><mask
       maskUnits="userSpaceOnUse"
       id="mask4"><circle
         style="display:inline;fill:#ffffff;fill-opacity:1;stroke:none;stroke-linecap:round"
         id="circle4"
         cx="400"
         cy="300"
         r="400" /></mask></defs><g
     inkscape:label="Layer 1"
     inkscape:groupmode="layer"
     id="layer1"><circle
       style="stroke-linecap:round;stroke:none;fill-opacity:1;fill:var(--xiv-colorArena, #40352c);"
       id="path2"
       cx="500"
       cy="400"
       r="400" /><g
       id="g47"
       clip-path="none"
       mask="url(#mask4)"
       transform="translate(100,100)"><path
         id="rect10"
         style="stroke-opacity:1;stroke-linecap:round;stroke-width:1;stroke:none;fill-opacity:1"
         d="m 399.99955,-150.00046 -200,199.999998 200,200.000002 200,-200.000002 z m 0,99.999998 100,100 -100,100.000002 -100,-100.000002 z"
         class="dark" /><use
         x="0"
         y="0"
         xlink:href="#rect10"
         id="use1"
         transform="translate(250.00068,250.00068)" /><use
         x="0"
         y="0"
         xlink:href="#use1"
         id="use2"
         transform="translate(-250.00023,249.99978)" /><use
         x="0"
         y="0"
         xlink:href="#use2"
         id="use3"
         transform="translate(-250,-250)" /><path
         style="display:inline;fill:none;fill-opacity:1;stroke-linecap:round;stroke-opacity:1"
         id="rect8"
         width="70.710999"
         height="70.710678"
         x="375"
         y="275"
         sodipodi:type="rect"
         transform="rotate(45,817.67656,1258.3658)"
         class="grid"
         d="M 445.711,275 H -685.66498 M 445.711,345.71068 H -685.66498 M 445.711,416.42136 H -685.66498 M 445.711,487.13203 H -685.66498 M 445.711,557.84271 H -685.66498 M 445.711,628.55339 H -685.66498 M 445.711,699.26407 H -685.66498 M 445.711,769.97475 H -685.66498 M 445.711,840.68542 H -685.66498 M 445.711,911.3961 H -685.66498 M 445.711,982.10678 H -685.66498 M 445.711,1052.8175 H -685.66498 M 445.711,1123.5281 H -685.66498 M 445.711,1194.2388 H -685.66498 M 445.711,1264.9495 H -685.66498 M 445.711,1335.6602 H -685.66498 M 445.711,1406.3708 H -685.66498 M 445.711,275 V 1406.3708 M 375,275 V 1406.3708 M 304.289,275 V 1406.3708 M 233.578,275 V 1406.3708 M 162.867,275 V 1406.3708 M 92.156006,275 V 1406.3708 M 21.445007,275 V 1406.3708 M -49.265991,275 V 1406.3708 M -119.97699,275 V 1406.3708 M -190.68799,275 V 1406.3708 M -261.39899,275 V 1406.3708 M -332.10999,275 V 1406.3708 M -402.82098,275 V 1406.3708 M -473.53198,275 V 1406.3708 M -544.24298,275 V 1406.3708 M -614.95398,275 V 1406.3708 M -685.66498,275 v 1131.3708"
         inkscape:path-effect="#path-effect8" /></g><path
       id="path3"
       style="display:inline;fill:#3b061d;fill-opacity:1;stroke:none;stroke-width:1;stroke-linecap:round;stroke-dasharray:none"
       d="M 500 0 A 400 400 0 0 0 100 400 A 400 400 0 0 0 500 800 A 400 400 0 0 0 900 400 A 400 400 0 0 0 500 0 z M 500 33 A 367 367 0 0 1 867 400 A 367 367 0 0 1 500 767 A 367 367 0 0 1 133 400 A 367 367 0 0 1 500 33 z " /><circle
       style="stroke-opacity:1;stroke-dasharray:none;stroke-linecap:round;stroke-width:1;stroke:var(--xiv-colorBorder, #6f5a48);fill-opacity:1;fill:none;display:inline;"
       id="path4"
       cx="500.49899"
       cy="400"
       r="366.99966" /></g></svg>
