<?xml version="1.0" encoding="UTF-8" standalone="no"?>
<!-- Created with Inkscape (http://www.inkscape.org/) -->

<svg
   width="64"
   height="64"
   viewBox="0 0 64 64"
   version="1.1"
   id="svg1"
   xml:space="preserve"
   inkscape:version="1.4.2 (ebf0e94, 2025-05-08)"
   sodipodi:docname="arcadion7.svg"
   xmlns:inkscape="http://www.inkscape.org/namespaces/inkscape"
   xmlns:sodipodi="http://sodipodi.sourceforge.net/DTD/sodipodi-0.dtd"
   xmlns="http://www.w3.org/2000/svg"
   xmlns:svg="http://www.w3.org/2000/svg"><style
     id="style1">.light { fill:var(--xiv-colorArenaLight, #4c4034); }
</style><sodipodi:namedview
     id="namedview1"
     pagecolor="#ffffff"
     bordercolor="#666666"
     borderopacity="1.0"
     inkscape:showpageshadow="2"
     inkscape:pageopacity="0.0"
     inkscape:pagecheckerboard="0"
     inkscape:deskcolor="#d1d1d1"
     inkscape:document-units="px"
     inkscape:zoom="16"
     inkscape:cx="37.8125"
     inkscape:cy="27.21875"
     inkscape:window-width="2194"
     inkscape:window-height="1163"
     inkscape:window-x="1912"
     inkscape:window-y="-8"
     inkscape:window-maximized="1"
     inkscape:current-layer="layer1"
     showgrid="true"><inkscape:grid
       id="grid1"
       units="px"
       originx="0"
       originy="0"
       spacingx="1"
       spacingy="1"
       empcolor="#5193ff"
       empopacity="0.29019608"
       color="#5193ff"
       opacity="0.12549"
       empspacing="8"
       enabled="true"
       visible="true" /></sodipodi:namedview><defs
     id="defs1" /><g
     inkscape:label="Layer 1"
     inkscape:groupmode="layer"
     id="layer1"><path
       id="path1"
       style=""
       d="M 0,0 V 64 H 64 V 0 Z M 1,1 H 63 V 63 H 1 Z"
       class="light" /><path
       id="path2"
       style=""
       d="m 24,8 v 5 h 2 v 3 h 1 V 12 H 25 V 9 h 7 V 8 Z m 9,0 v 2 h -1 V 11 H 34 V 8 Z m 2,0 v 5 h 5 v -1 H 36 V 8 Z m 2,0 v 3 h 3 V 10 h -2 v -2 z m 2,0 v 1 h 1 V 8 Z m -13,2 v 1 h 5 V 10 Z m 2,2 v 6 h 1 v -5 h 5 v -1 z m -4,2 v 4 h 1 v -4 z m 6,0 v 4 h 4 v -4 z m -15,1 v 8 H 16 V 16 h 7 v -1 z m 16,0 h 2 v 2 h -2 z m 4,0 v 3 h 1 V 16 h 2 v -1 z m 4,0 v 8 h -9 v 1 h -1 v -1 h -1 v 1 h -1 v -3 h -3 v 1 h 2 v 2 h -1 v -1 h -1 v 1 h -9 v 1 h 8 v 9 h 1 1 v -4 h -1 v -1 h 2 v 3 h 1 v -4 h -2 v -3 h 7 v -1 h 1 v 2 h -1 v 1 h 2 v -3 h 1 v 5 h 6 v -1 h -5 v -4 h 1 v 3 h 6 v -3 h -1 v 2 h -4 v -2 h 1 v 1 h 2 v -1 h -1 v -9 z m 2,0 v 1 h 7 v 7 h 1 V 15 Z M 26,17 v 2 h -2 v 1 h 4 v 2 h 1 V 19 H 27 V 17 Z m 11,0 v 1 h 1 V 17 Z m -7,2 v 1 h 4 v -1 z m 5,0 v 1 h 1 v -1 z m 2,0 v 2 h -4 v 1 h 5 v -3 z m -7,2 v 1 h 1 V 21 Z M 8,24 v 1 h 1 v -1 z m 2,0 v 2 h -2 v 1 h 3 v -3 z m 2,0 v 4 H 8 v 1 h 5 v -5 z m 32,0 v 4 h -2 v 1 h 3 v -2 h 2 v -1 h -2 v -2 z m 2,0 v 1 h 4 v -1 z m 5,0 v 2 h -3 v 1 h 4 v -2 h 3 v 7 h 1 v -8 z m -36,2 v 3 h 3 V 28 H 16 v -2 z m 2,0 v 1 h 1 v -1 z m 2,0 v 1 h 2 v 4 h 1 v -5 z m 7,0 v 1 h 5 v -1 z m 27,0 v 5 h 1 v -5 z m -34,2 v 1 h 1 v -1 z m 9,0 v 6 h 1 v -5 h 5 v -1 z m 18,0 v 1 h 5 v 5 h 1 V 28 Z M 8,30 v 1 h 2 v 1 h 1 v -2 z m 4,0 v 6 h 6 V 35 h -5 v -5 z m 2,0 v 4 h 4 v -4 z m 5,0 v 4 h 1 v -4 z m 11,0 v 4 h 4 v -4 z m 10,0 v 1 h -1 v 8 h -9 v 1 h -1 v -1 h -1 v 1 h -1 v -3 h -6 v 3 h 1 v -2 h 4 v 2 h -1 v -1 h -2 v 1 h 1 v 9 h 1 v -8 h 9 v -1 h 1 v 1 h 1 v -1 h 1 v 3 h 3 v -1 h -2 v -2 h 1 v 1 h 1 v -1 h 9 v -1 h -8 v -9 z m 2,0 v 1 h 1 v -1 z m 2,0 v 4 h 1 v -4 z m 2,0 v 4 h 4 v -4 z m -31,1 h 2 v 2 h -2 z m 16,0 h 2 v 2 h -2 z m 4,0 v 3 h 1 v -2 h 2 v -1 z m 12,0 h 2 v 2 h -2 z M 8,32 v 8 h 5 v -2 h 3 v -1 h -4 v 2 H 9 v -7 z m 45,0 v 2 h 3 V 33 H 54 v -1 z m -43,1 v 5 h 1 v -5 z m 11,0 v 1 h 1 v -1 z m 5,0 v 2 h -3 v 1 h 5 v 2 h 1 V 35 h -2 v -2 z m 11,0 v 1 h 1 v -1 z m 5,0 v 5 h 3 V 37 H 43 V 33 Z M 19,35 v 2 H 17 v 1 h 2 v 2 h 1 v -4 h 2 V 35 Z m 11,0 v 1 H 34 V 35 Z m 5,0 v 1 h 1 V 35 Z m 2,0 v 2 h -4 v 1 h 5 V 35 Z m 7,0 v 1 h 1 V 35 Z m 2,0 v 1 h 2 v 2 h 1 V 35 Z m 5,0 v 5 h 1 v -4 h 4 V 35 Z m -21,2 v 1 h 1 v -1 z m 16,0 v 1 h 1 v -1 z m 7,0 v 3 h 1 v -2 h 2 v -1 z m -39,2 v 1 h 4 v -1 z m 41,0 v 1 h 1 v -1 z m -40,2 v 8 h 8 V 48 H 16 v -7 z m 33,0 v 7 h -7 v 1 h 8 v -8 z m -22,1 v 3 h 1 v -2 h 4 v -1 z m 7,0 v 1 h 1 v -1 z m 2,0 v 3 h 2 v 2 h 1 v -2 h 2 v -1 h -4 v -2 z m -7,2 v 1 h 1 v -1 z m 2,0 v 1 h 4 v -1 z m -4,2 v 1 h 1 v -1 z m 2,0 v 2 h -2 v 1 h 3 v -3 z m 2,0 v 4 h 4 v -4 z m 5,0 v 5 h -5 v 1 h 6 v -6 z m 4,0 v 4 h 1 v -4 z m -8,1 h 2 v 2 h -2 z m 6,1 v 4 h 2 v 3 h -7 v 1 h 8 v -5 h -2 v -3 z m -13,3 v 1 h 4 v 4 h 1 v -5 z m 0,2 v 1 h 2 v 2 h 1 v -3 z m 6,0 v 3 h 1 V 54 h 1 v -1 z m 3,0 v 1 h 5 v -1 z m -9,2 v 1 h 1 v -1 z"
       class="light" /><circle
       style=""
       id="path101"
       cx="3.2249999"
       cy="3.2249999"
       r="0.625"
       class="light " /><circle
       style=""
       id="circle101"
       cx="17.625"
       cy="17.625"
       r="0.625"
       class="light" /><circle
       style=""
       id="circle102"
       cx="46.375"
       cy="17.625"
       r="0.625"
       class="light" /><circle
       style=""
       id="circle103"
       cx="46.375"
       cy="46.375"
       r="0.625"
       class="light" /><circle
       style=""
       id="circle104"
       cx="17.625"
       cy="46.375"
       r="0.625"
       class="light" /><circle
       style=""
       id="circle105"
       cx="3.2249999"
       cy="60.775002"
       r="0.625"
       class="light" /><circle
       style=""
       id="circle106"
       cx="60.775002"
       cy="3.2249999"
       r="0.625"
       class="light" /><circle
       style=""
       id="circle107"
       cx="60.775002"
       cy="60.775002"
       r="0.625"
       class="light" /></g></svg>
