<?xml version="1.0" encoding="UTF-8" standalone="no"?>
<!-- Created with Inkscape (http://www.inkscape.org/) -->

<svg
   width="32"
   height="32"
   viewBox="0 0 32 32"
   version="1.1"
   id="svg1"
   inkscape:version="1.4.2 (ebf0e94, 2025-05-08)"
   xml:space="preserve"
   sodipodi:docname="exaflare.svg"
   xmlns:inkscape="http://www.inkscape.org/namespaces/inkscape"
   xmlns:sodipodi="http://sodipodi.sourceforge.net/DTD/sodipodi-0.dtd"
   xmlns="http://www.w3.org/2000/svg"
   xmlns:svg="http://www.w3.org/2000/svg"><style
     id="style11">.path { fill:var(--xiv-colorZoneOrange, #ffa700); }
</style><sodipodi:namedview
     id="namedview1"
     pagecolor="#ffffff"
     bordercolor="#666666"
     borderopacity="1.0"
     inkscape:showpageshadow="2"
     inkscape:pageopacity="0.0"
     inkscape:pagecheckerboard="0"
     inkscape:deskcolor="#d1d1d1"
     inkscape:document-units="px"
     inkscape:zoom="32"
     inkscape:cx="19"
     inkscape:cy="16.296875"
     inkscape:window-width="1920"
     inkscape:window-height="1009"
     inkscape:window-x="-8"
     inkscape:window-y="1063"
     inkscape:window-maximized="1"
     inkscape:current-layer="layer1"
     showgrid="true"><inkscape:grid
       id="grid1"
       units="px"
       originx="0"
       originy="0"
       spacingx="1"
       spacingy="1"
       empcolor="#3f3fff"
       empopacity="0.25098039"
       color="#3f3fff"
       opacity="0.12549"
       empspacing="4"
       enabled="true"
       visible="true" /><inkscape:grid
       id="grid2"
       units="px"
       originx="0"
       originy="0"
       spacingx="0.5"
       spacingy="0.5"
       empcolor="#3f3fff"
       empopacity="0"
       color="#3f3fff"
       opacity="0.0352941"
       empspacing="4"
       enabled="true"
       visible="true" /></sodipodi:namedview><defs
     id="defs1"><clipPath
       clipPathUnits="userSpaceOnUse"
       id="clipPath5"><path
         id="path5"
         style="fill:#000000;fill-opacity:1;stroke:none;stroke-width:0.808121;stroke-linecap:round"
         d="M 14,0 V 14 H 0 v 4 h 14 v 14 h 4 V 18 H 32 V 14 H 18 V 0 Z" /></clipPath></defs><g
     inkscape:label="Layer 1"
     inkscape:groupmode="layer"
     id="layer1"><path
       id="path63"
       d="M 16,1 C 7.7157288,1 1,7.7157288 1,16 1,24.284271 7.7157288,31 16,31 24.284271,31 31,24.284271 31,16 31,7.7157288 24.284271,1 16,1 Z m 0,5 8,8 v 2 H 23 L 16,9 9,16 H 8 v -2 z m 0,6 6,6 -1,1 -5,-5 -5,5 -1,-1 z m 0,5 6,6 -1,1 -5,-5 -5,5 -1,-1 z"
       class="path"
       sodipodi:nodetypes="sssssccccccccccccccccccccccc" /></g></svg>
