<?xml version="1.0" encoding="UTF-8" standalone="no"?>
<!-- Created with Inkscape (http://www.inkscape.org/) -->

<svg
   width="32"
   height="32"
   viewBox="0 0 32 32"
   version="1.1"
   id="svg1"
   inkscape:version="1.4.2 (ebf0e94, 2025-05-08)"
   xml:space="preserve"
   sodipodi:docname="line_stack.svg"
   xmlns:inkscape="http://www.inkscape.org/namespaces/inkscape"
   xmlns:sodipodi="http://sodipodi.sourceforge.net/DTD/sodipodi-0.dtd"
   xmlns:xlink="http://www.w3.org/1999/xlink"
   xmlns="http://www.w3.org/2000/svg"
   xmlns:svg="http://www.w3.org/2000/svg"><style
     id="style11">.path { fill:var(--xiv-colorZoneOrange, #ffa700); }
</style><sodipodi:namedview
     id="namedview1"
     pagecolor="#ffffff"
     bordercolor="#666666"
     borderopacity="1.0"
     inkscape:showpageshadow="2"
     inkscape:pageopacity="0.0"
     inkscape:pagecheckerboard="0"
     inkscape:deskcolor="#d1d1d1"
     inkscape:document-units="px"
     inkscape:zoom="22.627417"
     inkscape:cx="18.318485"
     inkscape:cy="17.876543"
     inkscape:window-width="2194"
     inkscape:window-height="1163"
     inkscape:window-x="1912"
     inkscape:window-y="-8"
     inkscape:window-maximized="1"
     inkscape:current-layer="layer1"
     showgrid="true"><inkscape:grid
       id="grid1"
       units="px"
       originx="0"
       originy="0"
       spacingx="1"
       spacingy="1"
       empcolor="#3f3fff"
       empopacity="0.25098039"
       color="#3f3fff"
       opacity="0.12549"
       empspacing="5"
       enabled="true"
       visible="true" /></sodipodi:namedview><defs
     id="defs1"><clipPath
       clipPathUnits="userSpaceOnUse"
       id="clipPath5"><path
         id="path5"
         style="fill:#000000;fill-opacity:1;stroke:none;stroke-width:0.808121;stroke-linecap:round"
         d="M 14,0 V 14 H 0 v 4 h 14 v 14 h 4 V 18 H 32 V 14 H 18 V 0 Z" /></clipPath></defs><g
     inkscape:label="Layer 1"
     inkscape:groupmode="layer"
     id="layer1"><path
       style=""
       d="m 4,2 h 5 l 3,3 V 7 L 9,10 H 4 L 8,6 Z"
       id="path11"
       class="path" /><path
       style=""
       d="M 7,0 V 1 H 9 V 0 Z"
       id="path12"
       class="path" /><use
       x="0"
       y="0"
       xlink:href="#path11"
       id="use12"
       transform="translate(0,10)" /><use
       x="0"
       y="0"
       xlink:href="#use12"
       id="use13"
       transform="translate(0,10)" /><use
       x="0"
       y="0"
       xlink:href="#path12"
       id="use14"
       transform="translate(0,31)" /><use
       x="0"
       y="0"
       xlink:href="#path11"
       id="use15"
       transform="matrix(-1,0,0,1,32,0)" /><use
       x="0"
       y="0"
       xlink:href="#path12"
       id="use16"
       transform="matrix(-1,0,0,1,32,0)" /><use
       x="0"
       y="0"
       xlink:href="#use12"
       id="use17"
       transform="matrix(-1,0,0,1,32,0)" /><use
       x="0"
       y="0"
       xlink:href="#use13"
       id="use18"
       transform="matrix(-1,0,0,1,32,0)" /><use
       x="0"
       y="0"
       xlink:href="#use14"
       id="use19"
       transform="matrix(-1,0,0,1,32,0)" /></g></svg>
