<?xml version="1.0" encoding="UTF-8" standalone="no"?>
<!-- Created with Inkscape (http://www.inkscape.org/) -->

<svg
   width="32"
   height="32"
   viewBox="0 0 32 32"
   version="1.1"
   id="svg1"
   inkscape:version="1.4.2 (ebf0e94, 2025-05-08)"
   xml:space="preserve"
   sodipodi:docname="meteor_tower.svg"
   xmlns:inkscape="http://www.inkscape.org/namespaces/inkscape"
   xmlns:sodipodi="http://sodipodi.sourceforge.net/DTD/sodipodi-0.dtd"
   xmlns="http://www.w3.org/2000/svg"
   xmlns:svg="http://www.w3.org/2000/svg"><style
     id="style11">.path { fill:var(--xiv-colorZoneOrange, #ffa700); }
</style><sodipodi:namedview
     id="namedview1"
     pagecolor="#ffffff"
     bordercolor="#666666"
     borderopacity="1.0"
     inkscape:showpageshadow="2"
     inkscape:pageopacity="0.0"
     inkscape:pagecheckerboard="0"
     inkscape:deskcolor="#d1d1d1"
     inkscape:document-units="px"
     inkscape:zoom="22.627417"
     inkscape:cx="11.645165"
     inkscape:cy="19.069786"
     inkscape:window-width="2194"
     inkscape:window-height="1163"
     inkscape:window-x="1912"
     inkscape:window-y="-8"
     inkscape:window-maximized="1"
     inkscape:current-layer="layer1"
     showgrid="true"><inkscape:grid
       id="grid1"
       units="px"
       originx="0"
       originy="0"
       spacingx="1"
       spacingy="1"
       empcolor="#3f3fff"
       empopacity="0.25098039"
       color="#3f3fff"
       opacity="0.12549"
       empspacing="4"
       enabled="true"
       visible="true" /><inkscape:grid
       id="grid2"
       units="px"
       originx="0"
       originy="0"
       spacingx="0.5"
       spacingy="0.5"
       empcolor="#3f3fff"
       empopacity="0"
       color="#3f3fff"
       opacity="0.0352941"
       empspacing="4"
       enabled="true"
       visible="true" /></sodipodi:namedview><defs
     id="defs1"><clipPath
       clipPathUnits="userSpaceOnUse"
       id="clipPath5"><path
         id="path5"
         style="fill:#000000;fill-opacity:1;stroke:none;stroke-width:0.808121;stroke-linecap:round"
         d="M 14,0 V 14 H 0 v 4 h 14 v 14 h 4 V 18 H 32 V 14 H 18 V 0 Z" /></clipPath><clipPath
       clipPathUnits="userSpaceOnUse"
       id="clipPath70"><path
         style="fill:#000000;fill-opacity:1;stroke:none;stroke-width:1px;stroke-linecap:butt;stroke-linejoin:miter;stroke-opacity:1"
         d="m 0,22 h 14 v 6 h 4 V 22 H 32 V 32 H 0 Z"
         id="path70" /></clipPath></defs><g
     inkscape:label="Layer 1"
     inkscape:groupmode="layer"
     id="layer1"><path
       d="M 16,23 C 12.076102,23 8.5260246,23.335662 5.890625,23.900391 4.5729252,24.182755 3.4878931,24.514161 2.6484375,24.939453 2.2287097,25.152099 1.8643757,25.386912 1.5605469,25.705078 1.2567181,26.023244 1,26.477636 1,27 c 0,0.522364 0.2567181,0.976756 0.5605469,1.294922 0.3038288,0.318166 0.6681628,0.552979 1.0878906,0.765625 0.8394556,0.425292 1.9244877,0.756698 3.2421875,1.039062 C 8.5260246,30.664338 12.076102,31 16,31 c 3.923898,0 7.473975,-0.335662 10.109375,-0.900391 1.3177,-0.282364 2.402732,-0.61377 3.242187,-1.039062 0.419728,-0.212646 0.784062,-0.447459 1.087891,-0.765625 C 30.743282,27.976756 31,27.522364 31,27 31,26.477636 30.743282,26.023244 30.439453,25.705078 30.135624,25.386912 29.77129,25.152099 29.351562,24.939453 28.512107,24.514161 27.427075,24.182755 26.109375,23.900391 23.473975,23.335662 19.923898,23 16,23 Z m 0,2 c 3.808089,0 7.257849,0.336364 9.689453,0.857422 1.215802,0.260529 2.180391,0.574649 2.757813,0.867187 0.2203,0.111611 0.321429,0.197488 0.416015,0.275391 -0.09459,0.0779 -0.195715,0.16378 -0.416015,0.275391 -0.577422,0.292538 -1.542011,0.606658 -2.757813,0.867187 C 23.257849,28.663636 19.808089,29 16,29 12.191911,29 8.7421507,28.663636 6.3105469,28.142578 5.094745,27.882049 4.1301558,27.567929 3.5527344,27.275391 3.3324336,27.16378 3.2313047,27.077903 3.1367188,27 3.2313047,26.922097 3.3324336,26.83622 3.5527344,26.724609 4.1301558,26.432071 5.094745,26.117951 6.3105469,25.857422 8.7421507,25.336364 12.191911,25 16,25 Z"
       id="path65"
       clip-path="url(#clipPath70)"
       class="path"
       style="" /><rect
       style=""
       id="rect66"
       width="2"
       height="11"
       x="15"
       y="16"
       class="path" /><rect
       style=""
       id="rect67"
       width="2"
       height="6"
       x="15"
       y="0"
       class="path" /><circle
       style=""
       id="path67"
       cx="16"
       cy="11"
       r="4"
       class="path" /></g></svg>
