<?xml version="1.0" encoding="UTF-8" standalone="no"?>
<!-- Created with Inkscape (http://www.inkscape.org/) -->

<svg
   width="32"
   height="32"
   viewBox="0 0 32 32"
   version="1.1"
   id="svg1"
   inkscape:version="1.4.2 (ebf0e94, 2025-05-08)"
   xml:space="preserve"
   sodipodi:docname="stack.svg"
   xmlns:inkscape="http://www.inkscape.org/namespaces/inkscape"
   xmlns:sodipodi="http://sodipodi.sourceforge.net/DTD/sodipodi-0.dtd"
   xmlns:xlink="http://www.w3.org/1999/xlink"
   xmlns="http://www.w3.org/2000/svg"
   xmlns:svg="http://www.w3.org/2000/svg"><style
     id="style11">.path { fill:var(--xiv-colorZoneOrange, #ffa700); }
</style><sodipodi:namedview
     id="namedview1"
     pagecolor="#ffffff"
     bordercolor="#666666"
     borderopacity="1.0"
     inkscape:showpageshadow="2"
     inkscape:pageopacity="0.0"
     inkscape:pagecheckerboard="0"
     inkscape:deskcolor="#d1d1d1"
     inkscape:document-units="px"
     inkscape:zoom="22.627417"
     inkscape:cx="18.318485"
     inkscape:cy="10.805475"
     inkscape:window-width="2194"
     inkscape:window-height="1163"
     inkscape:window-x="1912"
     inkscape:window-y="-8"
     inkscape:window-maximized="1"
     inkscape:current-layer="layer1"
     showgrid="true"><inkscape:grid
       id="grid1"
       units="px"
       originx="0"
       originy="0"
       spacingx="1"
       spacingy="1"
       empcolor="#3f3fff"
       empopacity="0.25098039"
       color="#3f3fff"
       opacity="0.12549"
       empspacing="5"
       enabled="true"
       visible="true" /></sodipodi:namedview><defs
     id="defs1"><clipPath
       clipPathUnits="userSpaceOnUse"
       id="clipPath5"><path
         id="path5"
         style="fill:#000000;fill-opacity:1;stroke:none;stroke-width:0.808121;stroke-linecap:round"
         d="M 14,0 V 14 H 0 v 4 h 14 v 14 h 4 V 18 H 32 V 14 H 18 V 0 Z" /></clipPath></defs><g
     inkscape:label="Layer 1"
     inkscape:groupmode="layer"
     id="layer1"><path
       id="path2"
       style=""
       d="M 16 4 A 12 12 0 0 0 4 16 A 12 12 0 0 0 16 28 A 12 12 0 0 0 28 16 A 12 12 0 0 0 16 4 z M 16 6 A 10 10 0 0 1 26 16 A 10 10 0 0 1 16 26 A 10 10 0 0 1 6 16 A 10 10 0 0 1 16 6 z "
       clip-path="url(#clipPath5)"
       class="path " /><path
       style=""
       d="M 12,12 V 5 L 9,2 V 9 H 2 l 3,3 z"
       id="path1"
       inkscape:transform-center-x="9"
       inkscape:transform-center-y="-9"
       inkscape:tile-cx="16"
       inkscape:tile-cy="16"
       inkscape:tile-w="10"
       inkscape:tile-h="10"
       inkscape:tile-x0="2"
       inkscape:tile-y0="2"
       class="path" /><use
       x="0"
       y="0"
       inkscape:tiled-clone-of="#path1"
       xlink:href="#path1"
       transform="rotate(90,16,16)"
       id="use9"
       inkscape:transform-center-x="-9"
       inkscape:transform-center-y="-9" /><use
       x="0"
       y="0"
       inkscape:tiled-clone-of="#path1"
       xlink:href="#path1"
       transform="rotate(180,16,16)"
       id="use10"
       inkscape:transform-center-x="-9"
       inkscape:transform-center-y="9" /><use
       x="0"
       y="0"
       inkscape:tiled-clone-of="#path1"
       xlink:href="#path1"
       transform="rotate(-90,16,16)"
       id="use11"
       inkscape:transform-center-x="9"
       inkscape:transform-center-y="9" /></g></svg>
